<svg
width="100%" height="100%" viewBox="0 0 1024 1024" fill="currentColor" xmlns="http://www.w3.org/2000/svg"
>
    <g clip-path="url(#clip0_1_2)">
        <path
            d="M511.862 341.261C417.849 341.261 341.126 417.984 341.126 512C341.126 606.016 417.849 682.739 511.862 682.739C605.876 682.739 682.599 606.016 682.599 512C682.599 417.984 605.876 341.261 511.862 341.261ZM1023.94 512C1023.94 441.296 1024.58 371.233 1020.61 300.657C1016.64 218.682 997.942 145.929 937.998 85.9842C877.927 25.9116 805.303 7.33903 723.329 3.36835C652.627 -0.602336 582.565 0.0380986 511.99 0.0380986C441.288 0.0380986 371.226 -0.602336 300.652 3.36835C218.678 7.33903 145.926 26.0397 85.9826 85.9842C25.9111 146.057 7.33889 218.682 3.36828 300.657C-0.602325 371.361 0.0380979 441.424 0.0380979 512C0.0380979 582.576 -0.602325 652.767 3.36828 723.343C7.33889 805.318 26.0392 878.071 85.9826 938.016C146.054 998.088 218.678 1016.66 300.652 1020.63C371.354 1024.6 441.416 1023.96 511.99 1023.96C582.693 1023.96 652.755 1024.6 723.329 1020.63C805.303 1016.66 878.055 997.96 937.998 938.016C998.07 877.943 1016.64 805.318 1020.61 723.343C1024.71 652.767 1023.94 582.704 1023.94 512ZM511.862 774.705C366.487 774.705 249.162 657.378 249.162 512C249.162 366.622 366.487 249.294 511.862 249.294C657.238 249.294 774.563 366.622 774.563 512C774.563 657.378 657.238 774.705 511.862 774.705ZM785.322 299.889C751.38 299.889 723.97 272.478 723.97 238.535C723.97 204.592 751.38 177.182 785.322 177.182C819.264 177.182 846.674 204.592 846.674 238.535C846.685 246.595 845.105 254.578 842.025 262.026C838.945 269.474 834.426 276.242 828.727 281.941C823.028 287.64 816.261 292.159 808.813 295.239C801.364 298.319 793.382 299.899 785.322 299.889Z"
            />
    </g>
    <defs>
        <clipPath id="clip0_1_2">
            <rect width="100%" height="100%"/>
        </clipPath>
    </defs>
</svg>